<svg id="Capa_1" enable-background="new 0 0 512.004 512.004" height="512" viewBox="0 0 512.004 512.004" width="512" xmlns="http://www.w3.org/2000/svg"><g><path d="m82.748 490.671c-10.708.001-20.225-7.692-22.147-18.595l-60.256-341.728c-1.041-5.902.288-11.869 3.742-16.802s8.606-8.223 14.509-9.264l71.407-12.591v-47.858c0-12.407 10.093-22.5 22.5-22.5h227c12.407 0 22.5 10.093 22.5 22.5v3.896l103.742 18.292c5.902 1.041 11.055 4.33 14.509 9.263 3.454 4.932 4.783 10.899 3.743 16.802l-.246 1.395c2.639-.204 5.411-.068 8.178.42 5.408.954 10.373 3.173 13.979 6.25 4.642 3.959 6.792 9.136 5.897 14.204l-48.262 273.708c-.002.015-.005.029-.007.043-.003.015-.005.03-.008.044l-.797 4.524c-.117.661-.321 1.303-.608 1.909l-25.273 53.342c-1.446 3.053-4.751 4.76-8.08 4.175-3.326-.586-5.85-3.324-6.165-6.687l-.572-6.109c-1.646 3.585-4.226 6.688-7.554 9.019-4.933 3.454-10.9 4.783-16.802 3.743l-51.07-9.005c-4.08-.719-6.803-4.609-6.084-8.688s4.614-6.803 8.688-6.084l51.07 9.005c1.958.346 3.943-.101 5.594-1.257 1.65-1.156 2.75-2.87 3.094-4.826l8.207-46.544c.001-.007.003-.015.004-.022l49.076-278.321c.005-.026.009-.053.014-.079l2.956-16.762c.718-4.073-2.011-7.97-6.083-8.688l-101.139-17.835v134.3c0 4.142-3.358 7.5-7.5 7.5s-7.5-3.358-7.5-7.5v-153.427c0-4.135-3.364-7.5-7.5-7.5h-227c-4.136 0-7.5 3.365-7.5 7.5v45.214l27.058-4.771c4.084-.717 7.969 2.005 8.688 6.084s-2.004 7.969-6.084 8.688l-113.465 20.007c-1.956.345-3.67 1.444-4.826 3.094-1.156 1.651-1.603 3.638-1.257 5.594l60.256 341.729c.345 1.957 1.444 3.67 3.094 4.826 1.651 1.156 3.637 1.603 5.594 1.257l223.552-39.418c4.072-.718 6.801-4.616 6.083-8.688l-60.256-341.728c-.345-1.957-1.444-3.671-3.094-4.827-1.65-1.155-3.635-1.603-5.594-1.257l-79.043 13.938c-4.078.719-7.969-2.005-8.688-6.084s2.005-7.969 6.084-8.688l79.043-13.938c5.901-1.039 11.869.288 16.802 3.742s8.222 8.607 9.263 14.509l55.581 315.217h15.709c4.136 0 7.5-3.364 7.5-7.5v-163.573c0-4.142 3.358-7.5 7.5-7.5s7.5 3.358 7.5 7.5v163.573c0 12.407-10.093 22.5-22.5 22.5h-13.064l2.03 11.511c2.154 12.218-6.033 23.911-18.251 26.065l-223.553 39.418c-1.315.232-2.626.344-3.918.344zm349.753-100.421 2.489 26.566 11.425-24.113zm1.558-14.956 16.007 2.822 9.864-55.943-16.007-2.822zm12.469-70.716 16.007 2.822 14.421-81.787-16.007-2.822zm17.026-96.558 16.007 2.822 17.369-98.507c-.657-.891-3.134-2.873-7.606-3.661-4.474-.79-7.478.227-8.4.838zm33.48-96.271c0 .002-.001.005-.002.008l.002-.008c-.001 0 0 0 0 0z"/></g></svg>