<?xml version="1.0" encoding="iso-8859-1"?>
<!-- Generator: Adobe Illustrator 19.0.0, SVG Export Plug-In . SVG Version: 6.00 Build 0)  -->
<svg version="1.1" id="Capa_1"
	xmlns="http://www.w3.org/2000/svg"
	xmlns:xlink="http://www.w3.org/1999/xlink" x="0px" y="0px" viewBox="0 0 511.999 511.999" fill="#fff" style="enable-background:new 0 0 511.999 511.999;" xml:space="preserve">
	<g>
		<g>
			<path d="M256.004,159.776c-85.372,0-154.828,69.456-154.828,154.828s69.456,154.828,154.828,154.828
			c85.367,0,154.818-69.456,154.818-154.828S341.371,159.776,256.004,159.776z M266.044,448.98v-18.993
			c0-5.545-4.496-10.039-10.039-10.039c-5.545,0-10.039,4.495-10.039,10.039v18.993c-66.315-4.907-119.428-58.021-124.336-124.337
			h18.993c5.545,0,10.039-4.495,10.039-10.039s-4.495-10.039-10.039-10.039h-18.993c4.907-66.315,58.021-119.428,124.336-124.336
			v18.993c0,5.545,4.495,10.039,10.039,10.039c5.544,0,10.039-4.495,10.039-10.039v-18.993
			c66.311,4.908,119.419,58.021,124.327,124.336h-18.983c-5.544,0-10.039,4.495-10.039,10.039s4.496,10.039,10.039,10.039h18.983
			C385.463,390.959,332.355,444.072,266.044,448.98z"/>
		</g>
	</g>
	<g>
		<g>
			<path d="M417.609,201.259v-52.686h0.001c0-5.545-4.496-10.039-10.039-10.039c-5.544,0-10.039,4.495-10.039,10.039v28.481
			c-14.724-15.127-31.844-27.921-50.517-37.642c-24.938-12.982-52.739-20.472-80.969-21.917v-83.23l28.304,28.304
			c0.018,0.018,0.036,0.036,0.054,0.054l33.082,33.082c3.222,3.221,8.208,3.869,12.144,1.581l57.903-33.644v28.207
			c0,5.545,4.496,10.039,10.039,10.039c5.544,0,10.039-4.495,10.039-10.039V46.199c0-3.592-1.919-6.909-5.032-8.701
			c-3.112-1.791-6.945-1.783-10.051,0.02l-29.084,16.898l-24.456-31.475c-3.226-4.152-9.112-5.113-13.49-2.198l-32.77,21.808
			L263.103,2.928c-1.921-1.921-4.49-2.917-7.103-2.917c-2.73-0.133-5.504,0.832-7.588,2.917l-39.618,39.619l-32.777-21.805
			c-4.378-2.912-10.262-1.953-13.488,2.199l-24.455,31.475L108.99,37.517c-3.105-1.803-6.938-1.811-10.05-0.02
			c-3.113,1.792-5.032,5.109-5.032,8.701v155.755c-23.102,33.149-35.299,72.024-35.299,112.65
			c0,108.845,88.552,197.396,197.396,197.396c108.839,0,197.386-88.552,197.386-197.396
			C453.39,273.686,441.027,234.572,417.609,201.259z M338.854,42.628l17.069,21.967l-19.704,11.449l-19.011-19.011L338.854,42.628z
			 M172.663,42.627l21.65,14.403l-19.015,19.015l-19.705-11.449L172.663,42.627z M113.986,63.642l57.904,33.644
			c3.936,2.289,8.921,1.639,12.142-1.58l61.933-61.933v83.722c-28.382,1.452-56.32,9.012-81.367,22.12
			c-18.734,9.805-35.886,22.699-50.612,37.936V63.642z M256.004,491.921c-97.773,0-177.317-79.544-177.317-177.317
			c0-37.482,11.549-73.302,33.402-103.589c33.207-46.056,86.84-73.588,143.531-73.712c0.128,0.005,0.254,0.019,0.383,0.019
			c0.128,0,0.253-0.014,0.379-0.019c55.667,0.12,108.48,26.752,141.798,71.385c0.645,1.712,1.738,3.2,3.144,4.319
			c20.935,29.871,31.985,64.926,31.985,101.596C433.311,412.377,353.772,491.921,256.004,491.921z"/>
		</g>
	</g>
	<g>
		<g>
			<path d="M309.264,304.565h-43.22v-69.162c0-5.545-4.496-10.039-10.039-10.039c-5.545,0-10.039,4.495-10.039,10.039v79.201
			c0,5.545,4.495,10.039,10.039,10.039h53.259c5.544,0,10.039-4.495,10.039-10.039S314.808,304.565,309.264,304.565z"/>
		</g>
	</g>
	<g>
		<g>
			<path d="M408.102,109.418c-12.92,0-12.941,20.079,0,20.079C421.022,129.497,421.044,109.418,408.102,109.418z"/>
		</g>
	</g>
	<g>
	</g>
	<g>
	</g>
	<g>
	</g>
	<g>
	</g>
	<g>
	</g>
	<g>
	</g>
	<g>
	</g>
	<g>
	</g>
	<g>
	</g>
	<g>
	</g>
	<g>
	</g>
	<g>
	</g>
	<g>
	</g>
	<g>
	</g>
	<g>
	</g>
</svg>
