<svg id="Layer" enable-background="new 0 0 64 64" fill="#000000" height="512" viewBox="0 0 64 64" width="512"
    xmlns="http://www.w3.org/2000/svg">
    <path d="m45.5 24h-30.672l1.586-1.586c.781-.781.781-2.047 0-2.828-.78-.781-2.048-.781-2.828 0l-5 5c-.781.781-.781 2.047 0 2.828l5 5c.39.391.902.586 1.414.586s1.024-.195 1.414-.586c.781-.781.781-2.047 0-2.828l-1.586-1.586h30.672c3.584 0 6.5 2.916 6.5 6.5s-2.916 6.5-6.5 6.5h-5.5c-1.104 0-2 .896-2 2s.896 2 2 2h5.5c5.79 0 10.5-4.71 10.5-10.5s-4.71-10.5-10.5-10.5z"/>
</svg>