<?xml version="1.0" encoding="iso-8859-1"?>
<!-- Generator: Adobe Illustrator 21.0.0, SVG Export Plug-In . SVG Version: 6.00 Build 0)  -->
<svg xmlns="http://www.w3.org/2000/svg"
	xmlns:xlink="http://www.w3.org/1999/xlink" version="1.1" id="Capa_1" x="0px" y="0px" viewBox="0 0 512 512" style="enable-background:new 0 0 512 512;" xml:space="preserve" fill="black">
	<g>
		<path d="M181,256c0,41.355,33.645,75,75,75s75-33.645,75-75s-33.645-75-75-75S181,214.645,181,256z M301,256   c0,24.813-20.187,45-45,45s-45-20.187-45-45s20.187-45,45-45S301,231.187,301,256z"/>
		<path d="M166,150h180c5.682,0,10.875-3.21,13.417-8.292c2.541-5.082,1.993-11.163-1.417-15.708L268,6c-2.833-3.777-7.279-6-12-6   s-9.167,2.223-12,6l-90,120c-3.409,4.545-3.958,10.626-1.417,15.708C155.125,146.79,160.318,150,166,150z M256,40l60,80H196L256,40   z"/>
		<path d="M346,362H166c-5.682,0-10.875,3.21-13.417,8.292c-2.541,5.082-1.993,11.163,1.417,15.708l90,120c2.833,3.777,7.279,6,12,6   s9.167-2.223,12-6l90-120c3.409-4.545,3.958-10.626,1.417-15.708C356.875,365.21,351.682,362,346,362z M256,472l-60-80h120L256,472   z"/>
	</g>















</svg>
