<svg id="_x31__px" enable-background="new 0 0 24 24" height="512" viewBox="0 0 24 24" width="512" xmlns="http://www.w3.org/2000/svg"><g id="XMLID_1_"><path d="m21.2 8.93.7-.71.35.35c.2.2.2.51 0 .71-.09.1-.22.15-.35.15s-.26-.05-.35-.15z"/><path d="m22.25 9.28-2.12 2.12c.2-.2.2-.51 0-.71l-.35-.35 1.42-1.41.35.35c.09.1.22.15.35.15s.26-.05.35-.15z"/><path d="m20.13 10.69c.2.2.2.51 0 .71-.1.1-.22.15-.35.15s-.26-.05-.36-.15l-.35-.35.71-.71z"/><path d="m19.43 5.74 2.47 2.48-.7.71-2.48-2.48c-.2-.2-.2-.51 0-.71.19-.19.51-.19.71 0z"/><path d="m19.78 11.55c.13 0 .25-.05.35-.15l-2.12 2.12c.19-.19.19-.51 0-.71l-.35-.35 1.41-1.41.35.35c.1.1.23.15.36.15z"/><path d="m19.78 10.34-.71.71-1.06-1.07c-.19-.19-.19-.51 0-.7.19-.2.51-.2.71 0z"/><path d="m17.3 13.52-.35-.35.71-.71.35.35c.19.2.19.52 0 .71-.1.1-.23.15-.35.15-.13 0-.26-.05-.36-.15z"/><path d="m17.66 12.46-.71.71-1.06-1.06c-.2-.2-.2-.52 0-.71.19-.2.51-.2.71 0z"/><path d="m17.66 13.67c.12 0 .25-.05.35-.15l-2.12 2.12c.19-.19.19-.51 0-.7l-.35-.35 1.41-1.42.35.35c.1.1.23.15.36.15z"/><path d="m15.89 14.94c.19.19.19.51 0 .7-.1.1-.23.15-.35.15-.13 0-.26-.05-.36-.15l-.35-.35.71-.7z"/><path d="m15.54 15.79c.12 0 .25-.05.35-.15l-2.12 2.12c.19-.19.19-.51 0-.7l-.35-.35 1.41-1.42.35.35c.1.1.23.15.36.15z"/><path d="m13.77 17.06c.19.19.19.51 0 .7-.1.1-.23.15-.36.15-.12 0-.25-.05-.35-.15l-.35-.35.71-.7z"/><path d="m13.06 12.11 2.48 2.48-.71.7-2.48-2.48c-.19-.19-.19-.51 0-.7.2-.2.52-.2.71 0z"/><path d="m13.77 17.76-2.11 2.11c.18-.2.17-.51-.01-.69l-.35-.35 1.41-1.42.35.35c.1.1.23.15.35.15.13 0 .26-.05.36-.15z"/><path d="m11.65 16.35c-.2-.19-.2-.51 0-.71.19-.19.51-.19.7 0l1.07 1.07-.71.7z"/><path d="m11.65 19.18c.18.18.19.49.01.69l-.03.03c-.1.09-.22.13-.34.13-.13 0-.25-.05-.35-.14l-.35-.35.71-.71z"/><path d="m11.3 18.83-.71.71-1.07-1.07c-.19-.19-.19-.51 0-.71.2-.19.52-.19.71 0z"/><path d="m11.63 19.9-2.11 2.11c.2-.2.2-.52 0-.71l-.35-.35 1.42-1.41.35.35c.1.09.22.14.35.14.12 0 .24-.04.34-.13z"/><path d="m9.52 21.3c.2.19.2.51 0 .71-.09.09-.22.14-.35.14s-.26-.05-.35-.14l-.35-.35.7-.71z"/><path d="m6.7 18.47 2.47 2.48-.7.71-2.48-2.48c-.2-.2-.2-.51 0-.71.19-.19.51-.19.71 0z"/><path d="m7.05 22.36c.19.19.51.19.71 0l.71-.7.35.35c.09.09.22.14.35.14s.26-.05.35-.14l-1.06 1.06c-.29.29-.67.43-1.06.43-.38 0-.76-.14-1.06-.43l-5.65-5.66c-.29-.28-.44-.66-.44-1.06s.15-.78.44-1.06l14.85-14.85c.56-.57 1.55-.57 2.12 0l5.65 5.66c.29.28.44.66.44 1.06s-.15.77-.44 1.06l-1.06 1.06c.2-.2.2-.51 0-.71l-.35-.35.71-.71c.09-.09.14-.22.14-.35 0-.14-.05-.26-.14-.36l-5.66-5.65c-.19-.2-.51-.2-.71 0l-14.85 14.85c-.09.09-.14.22-.14.35s.05.26.14.35z"/></g></svg>