<svg width="0" height="0" class="hidden">
    <symbol xmlns="http://www.w3.org/2000/svg" viewBox="0 -87 432 432" id="camera">
        <path d="M278.906 0H30C13.437.02.02 13.438 0 30v197.422c.02 16.562 13.438 29.98 30 30h248.906c16.559-.02 29.98-13.438 30-30V30c-.02-16.563-13.441-29.98-30-30zm50 169.8L432 226.087V31.98L328.906 88.266zm0 0"></path>
    </symbol>
    <symbol xmlns="http://www.w3.org/2000/svg" viewBox="0 0 321.145 321.145" id="console">
        <path d="M320.973 200.981c-.8-18.4-4-38.8-8.8-58-4.8-18.4-10.8-35.6-18-48.8-28-49.2-58.4-41.6-94.8-32-11.6 2.8-24 6-36.8 7.2h-4c-12.8-1.2-25.2-4.4-36.8-7.2-36.4-9.2-66.8-17.2-94.8 32.4-7.2 13.2-13.6 30.4-18 48.8-4.8 19.2-8 39.6-8.8 58-.8 20.4 1.2 35.2 5.6 45.6 4.4 9.6 10.8 15.6 19.2 18 7.6 2 16.4 1.2 25.6-2.8 15.6-6.4 33.6-20 51.2-36.4 12.4-12 35.6-18 58.8-18s46.4 6 58.8 18c17.6 16.4 35.6 30 51.2 36.4 9.2 3.6 18 4.8 25.6 2.8 8-2.4 14.8-8 19.2-18.4 4.4-10 6.4-24.8 5.6-45.6zm-19.2 40c-2.4 5.6-5.6 8.8-9.6 10-4.4 1.2-10 .4-16.4-2-14-5.6-30.4-18-46.4-33.2-15.2-15.2-42-22.8-68.8-22.8s-53.6 7.6-69.2 22c-16.4 15.2-32.8 28-46.4 33.2-6.4 2.4-12 3.6-16.4 2-4-1.2-7.2-4.4-9.6-10-3.2-7.6-4.8-20-4-38.4.8-17.2 3.6-36.8 8.4-55.2 4.4-17.2 10-33.2 16.8-45.2 22-39.6 47.6-33.2 78-25.2 12.4 3.2 25.2 6.4 39.2 7.6h6c14.4-1.2 27.2-4.4 39.6-7.6 30.4-7.6 56-14.4 78 25.2 6.8 12 12.4 27.6 16.8 45.2 4.4 18.4 7.6 37.6 8.4 55.2.8 18.4-.8 30.8-4.4 39.2z"></path>
        <path d="M123.773 122.981c-4-3.6-8.8-6.4-14.4-6.8-.4-5.2-2.8-10.4-6.4-14l-.4-.4c-4.4-4.4-10-6.8-16.4-6.8-6.4 0-12.4 2.8-16.4 6.8-3.6 3.6-6.4 8.8-6.8 14.4-5.6.4-10.4 2.8-14.4 6.4l-.4.4c-4.4 4.4-6.8 10-6.8 16.4 0 6.4 2.8 12.4 6.8 16.4 4 4 8.8 6.4 14.8 6.8.4 5.6 2.8 10.8 6.8 14.4 4.4 4.4 10 6.8 16.4 6.8 6.4 0 12.4-2.8 16.4-6.8 3.6-4 6.4-8.8 6.8-14.4 5.6-.4 10.8-2.8 14.4-6.8 4.4-4.4 6.8-10 6.8-16.4 0-6.4-2.8-12.4-6.8-16.4zm-10 22.4c-1.6 1.6-3.6 2.4-6 2.4h-5.6c-4 0-7.6 3.2-7.6 7.6v5.2c0 2.4-.8 4.4-2.4 6-1.6 1.6-3.6 2.4-6 2.4s-4.4-.8-6-2.4c-1.6-1.6-2.4-3.6-2.4-6v-5.6c0-4-3.2-7.6-7.6-7.6h-5.6c-2.4 0-4.4-.8-6-2.4-1.2-1.2-2.4-3.2-2.4-5.6 0-2.4.8-4.4 2.4-6l.4-.4c1.6-1.2 3.6-2 5.6-2h5.6c4 0 7.6-3.2 7.6-7.6v-5.6c0-2.4.8-4.4 2.4-6 1.6-1.6 3.6-2.4 6-2.4s4.4.8 6 2.4l.4.4c1.2 1.6 2 3.6 2 5.6v5.6c0 4 3.2 7.6 7.6 7.6h5.6c2.4 0 4.4.8 6 2.4 1.6 1.6 2.4 3.6 2.4 6s-.8 4.4-2.4 6z"></path>
        <circle cx="230.173" cy="110.981" r="14"></circle>
        <circle cx="230.173" cy="167.781" r="14"></circle>
        <circle cx="201.773" cy="139.381" r="14"></circle>
        <circle cx="258.573" cy="139.381" r="14"></circle>
    </symbol>
    <symbol xmlns="http://www.w3.org/2000/svg" viewBox="0 0 74 74" id="crown">
        <path d="M49.376 39.114a.985.985 0 01-.206-.021 1 1 0 01-.67-.493L38.3 20.29a1 1 0 111.746-.974l9.644 17.308 13.419-10.136a1 1 0 111.205 1.6L49.979 38.912a1 1 0 01-.603.202zm-23.204.64a1 1 0 01-.592-.194L9.782 27.968a1 1 0 111.184-1.612l14.826 10.878 8.472-17.664a1 1 0 111.8.865l-8.993 18.75a1 1 0 01-.9.567z"></path>
        <path d="M59.287 55.6H14.866a1 1 0 01-.966-.739L6.942 29.114a1 1 0 011.932-.521L15.632 53.6h42.889l6.729-24.988a1 1 0 011.932.521L60.253 54.86a1 1 0 01-.966.74z"></path>
        <path d="M59.287 62.629h-44.5a2.339 2.339 0 01-2.267-2.922l1.373-5.346a1 1 0 01.969-.751h44.349a1 1 0 01.969.751l1.374 5.347a2.341 2.341 0 01-2.267 2.922zm-43.648-7.02l-1.18 4.6a.34.34 0 00.329.425h44.5a.34.34 0 00.329-.424l-1.181-4.6zM37 21.44a5.034 5.034 0 114.886-3.84A5.008 5.008 0 0137 21.44zm0-8.069a3.04 3.04 0 10.727.088 3.074 3.074 0 00-.737-.088zm29.965 16.577a5.034 5.034 0 114.891-3.838 5.014 5.014 0 01-4.891 3.838zm0-8.07a3.04 3.04 0 10.727.088 3.074 3.074 0 00-.732-.088zm-59.93 8.07a5.038 5.038 0 111.2-.145 5.043 5.043 0 01-1.2.145zm0-8.07a3.074 3.074 0 00-.727.088 3.019 3.019 0 10.727-.088z"></path>
    </symbol>
    <symbol xmlns="http://www.w3.org/2000/svg" viewBox="0 0 512.007 512.007" id="diamond">
        <path d="M510.025 139.609l-85.333-102.4a8.547 8.547 0 00-6.554-3.063H93.871a8.524 8.524 0 00-6.554 3.063l-85.333 102.4a8.512 8.512 0 00-1.178 9.079 8.55 8.55 0 007.731 4.915H503.47a8.55 8.55 0 007.731-4.915 8.53 8.53 0 00-1.176-9.079zm-483.268-3.072l71.108-85.333h316.271l71.108 85.333H26.757z"></path>
        <path d="M263.898 39.402a8.535 8.535 0 00-7.885-5.265H93.88c-3.055 0-5.871 1.63-7.398 4.284s-1.519 5.905.026 8.55l59.733 102.4a8.541 8.541 0 006.272 4.164c.367.043.734.068 1.092.068a8.539 8.539 0 006.042-2.5l102.4-102.4a8.532 8.532 0 001.851-9.301zm-108.501 91.81l-46.669-80.008h126.677l-80.008 80.008z"></path>
        <path d="M511.109 141.281a8.527 8.527 0 00-7.646-4.753H8.53a8.536 8.536 0 00-7.646 4.753 8.537 8.537 0 00.87 8.96l247.467 324.267c1.613 2.116 4.122 3.362 6.784 3.362s5.171-1.246 6.767-3.362l247.467-324.267a8.54 8.54 0 00.87-8.96zM256.005 455.274L25.784 153.604h460.442l-230.221 301.67z"></path>
        <path d="M264.146 466.76l-102.4-324.267a8.538 8.538 0 00-8.141-5.965H8.538a8.536 8.536 0 00-7.646 4.753 8.537 8.537 0 00.87 8.96l247.467 324.267a8.517 8.517 0 006.784 3.362 8.297 8.297 0 003.925-.973 8.53 8.53 0 004.208-10.137zM25.784 153.604H147.35l85.811 271.736L25.784 153.604zM425.537 38.421a8.52 8.52 0 00-7.398-4.284H256.005a8.53 8.53 0 00-6.033 14.566l102.4 102.4a8.503 8.503 0 006.033 2.5c.367 0 .734-.026 1.101-.068a8.531 8.531 0 006.272-4.164l59.733-102.4a8.55 8.55 0 00.026-8.55zm-68.924 92.791l-80.009-80.008h126.677l-46.668 80.008z"></path>
        <path d="M511.126 141.299a8.527 8.527 0 00-7.646-4.753H358.413a8.53 8.53 0 00-8.141 5.965l-102.4 324.267a8.539 8.539 0 004.207 10.138 8.493 8.493 0 003.925.956 8.574 8.574 0 006.784-3.345L510.255 150.26a8.54 8.54 0 00.871-8.961zm-232.277 284.04l85.811-271.736h121.566L278.849 425.339z"></path>
    </symbol>
    <symbol xmlns="http://www.w3.org/2000/svg" viewBox="0 0 512 512" id="friend">
        <path d="M59.054 247.76c-.203.049-.403.104-.603.165-31.791 9.769-54.369 38.642-56.184 71.847-.007.122-.011.243-.014.365L.002 454.825a10.001 10.001 0 009.999 10.181l312.072.003c5.523 0 10-4.478 10-10s-4.477-10-10-10H289.51v-76.512c0-5.522-4.477-10-10-10s-10 4.478-10 10v76.512h-32.691l2.058-120.163c1.385-23.927 18.916-46.385 41.794-53.561l46.08-11.062h.922c20.991 17.334 52.449 19.124 73.29 0h.918l46.08 11.062c22.918 7.188 40.406 29.58 41.794 53.562l2.058 120.162h-32.21v-76.512c0-5.522-4.477-10-10-10s-10 4.478-10 10v76.512h-29.537c-5.523 0-10 4.478-10 10s4.477 10 10 10H502a10 10 0 009.998-10.186l-2.252-130.537a8.5 8.5 0 00-.013-.358c-1.523-27.892-18.581-53.487-42.999-66.375l7.181-20.193c3.935-10.194-.212-23.796-10.696-28.431l-13.293-5.891c-8.783-4.894-19.823-3.468-27.079 3.571-.879.854-2.23 1.071-3.275.539-2.601-1.34-6.133-2.938-10.641-4.528a70.078 70.078 0 002.067-1.948c12.943-12.791 20.071-29.714 20.071-47.649v-19.078a9.99 9.99 0 004.929-2.938 9.994 9.994 0 002.573-7.65c-.07-.767-1.822-18.988-11.364-37.341-13.272-25.53-34.853-39.024-62.409-39.024-37.911 0-57.192 21.102-66.69 38.804-9.919 18.486-11.139 36.88-11.186 37.654a10 10 0 008.813 10.538c.129.015.407.045.794.079v18.956c0 .129.002.258.007.388.694 17.905 7.802 33.947 18.975 45.835-10.19 1.745-22.999 4.018-35.416 6.435-3.42.5-45.001 6.683-92.636 18.719l-3.53-15.235a69.468 69.468 0 0010.437-8.493c12.943-12.791 20.071-29.714 20.071-47.649v-11.766l.467.005h.001a10.002 10.002 0 009.991-10.426c-.035-.826-.971-20.477-10.479-40.298-13.203-27.524-36.112-42.073-66.25-42.073-39.365 0-58.03 22.99-66.756 42.276-9.02 19.936-9.122 39.69-9.122 40.521 0 4.696 3.242 8.625 7.607 9.699v12.061c0 .129.002.259.007.388.906 23.36 12.713 43.563 30.25 55.482l-3.62 27.468zm-36.807 72.928c1.405-24.315 18.551-46.278 41.792-53.557l46.082-11.062h.814c22.529 21.781 61.396 17.026 76.171-10.932 37.835-9.826 72.583-15.937 87.86-18.416l7.95 23.453-7.237 1.737a10.35 10.35 0 00-.604.165c-31.296 9.624-54.399 39.169-56.182 71.848-.006.119-.011.238-.013.357l-2.071 120.724H74.514v-76.509c0-5.522-4.477-10-10-10s-10 4.478-10 10v76.509H20.182zm345.034-100.491a66.755 66.755 0 0013.942-2.252l4.634 28.84c-13.378 9.901-30.716 9.192-43.754-.673l3.69-28.277c6.968 1.973 14.259 2.74 21.488 2.362zm53.534 7.252c5.982 0 11.65-2.304 15.96-6.486 1.484-1.438 3.081-.512 4.572.149l13.016 5.768a2.868 2.868 0 01.883 3.307c-.043.108-.084.219-.124.329l-7.183 20.195-42.546-10.214c-.098-.023-.196-.046-.294-.066l-3.033-19.031c3.584 1.253 6.347 2.498 8.375 3.543a22.93 22.93 0 0010.374 2.506zm-47.549-28.155c-3.105.66-6.293.999-9.466.999-25.955 0-46.201-22.166-47.27-47.472v-19.238c0-.304.003-.607.009-.911 9.394-2.071 18.5-6.421 25.35-13.269 12.314 10.658 29.458 14.862 45.421 14.862h23.76v18.758c0 22.392-16.533 41.746-37.804 46.271zM316.021 94.719c10.088-18.398 26.5-27.728 48.778-27.728 19.717 0 34.659 9.343 44.412 27.769 3.662 6.919 5.958 13.948 7.367 19.503-10.316 0-20.653.207-30.967-.026-5.687-.155-12.077-1.087-17.99-3.065-11.809-4.17-16.626-11.218-17.426-12.51-4.012-6.72-13.507-7.594-17.59-.247-5.083 9.067-13.518 13.882-23.834 15.338 1.329-5.447 3.555-12.295 7.25-19.034zm9.578 123.102l-2.962 22.817-20.192 4.847-7.544-22.258a1863.883 1863.883 0 0130.698-5.406zM99.636 98.985c9.163-20.252 25.492-30.521 48.534-30.521 22.032 0 38.173 10.17 47.977 30.228 3.718 7.606 5.876 15.332 7.122 21.394-15.383-2.571-31.584-8.97-40.164-22.773-2.558-4.115-4.835-7.958-10.317-7.965-4.057-.005-7.828 2.567-9.312 6.349-.053.136-3.978 10.478-10.4 16.206-.986-6.997-9.166-11.891-15.207-8.086-2.45 1.54-4.465 4.3-6.703 6.167-5.174 4.315-11.21 7.746-17.69 9.645.992-5.846 2.813-13.246 6.16-20.644zm.264 53.836v-14.225c5.429-1.668 10.639-4.085 15.473-7.06a9.983 9.983 0 007.797 3.737c12.599 0 23.262-7.78 30.551-17.552 11.933 12.386 28.023 18.255 40.719 21.036v14.265c0 25.404-21.874 47.27-47.27 47.27-25.961 0-46.201-22.164-47.27-47.471zm43.905 67.386a66.651 66.651 0 0021.579-2.483l4.139 17.863c-8.456 16.223-30.219 18.496-43.64 7.047l3.269-24.805c4.775 1.353 9.699 2.129 14.653 2.378z"></path>
        <path d="M357.29 460.56c3.045 4.53 9.323 5.776 13.87 2.76 4.544-3.014 5.769-9.343 2.76-13.869-3.015-4.536-9.339-5.774-13.86-2.761-4.532 3.02-5.793 9.339-2.77 13.87z"></path>
    </symbol>
    <symbol xmlns="http://www.w3.org/2000/svg" viewBox="0 0 512 512" id="twitch">
        <path d="M48 0L16 96v352h128v64h64l64-64h96l128-136.32V0H48zm416 288l-89.6 96H260.928L192 434.144V384H80V32h384v256z"></path>
        <path d="M240 128h32v128h-32zm96 0h32v128h-32z"></path>
    </symbol>
</svg>